<?xml version="1.0" encoding="utf-8"?>
<!-- Generator: Adobe Illustrator 22.1.0, SVG Export Plug-In . SVG Version: 6.00 Build 0)  -->
<svg version="1.1" id="Layer_1" xmlns="http://www.w3.org/2000/svg" xmlns:xlink="http://www.w3.org/1999/xlink" x="0px" y="0px"
	 viewBox="0 0 139.6 176.1" style="enable-background:new 0 0 139.6 176.1;" xml:space="preserve">
<style type="text/css">
	.st0{display:none;}
	.st1{display:inline;fill:#262626;}
	.st2{fill:#FFFFFF;}
</style>
<g class="st0">
	<path class="st1" d="M90.8,202.3l81.6-59.3c15.7-11.4,22.3-31.7,16.3-50.1L157.5-3c-6-18.5-23.2-31-42.7-31L14.1-34
		C-5.4-34-22.6-21.5-28.6-3l-31.2,95.9c-6,18.5,0.6,38.7,16.3,50.1l81.6,59.3C53.8,213.7,75.1,213.7,90.8,202.3z"/>
</g>
<rect x="-0.3" y="-2.5" class="st0" width="167" height="194"/>
<g>
	<g>
		<path class="st2" d="M45.7,30.1c-11.6,1.3-12.7,2.2-12.7,14.7v54.9c0,19.6-3.1,29.8-13,38.7c-4.9,4.4-9.8,6.8-13.8,8.6l-2.4-4.4
			c8.5-4.2,13.2-11,14.8-19.6c1.3-7.1,1.5-15.7,1.5-28.2v-50c0-12.5-1.3-13.5-13.5-14.7v-4.2h39.1V30.1z"/>
		<path class="st2" d="M107.3,70.1c14.2,2.4,25.8,9.2,25.8,23.6c0,10.1-5.6,18.1-14.4,22.8c-7.7,4.3-15.3,5.8-25.6,5.8H56.6v-4.2
			C69.2,117,70,115.6,70,103.9V44.5c0-12.3-1.3-13.3-13.3-14.4v-4.2h38.8c11.1,0,18.1,1.9,22.8,5.2c5.2,3.6,8.7,9,8.7,16.6
			C127.1,61.7,115.6,68,107.3,70.1z M90.3,68.3c16.3,0,23-6.5,23-18.7c0-10.4-6.4-18.4-20.6-18.4c-4.2,0-6.8,0.4-8.3,1.5
			c-1.2,0.9-1.6,2.5-1.6,7.3v28.3H90.3z M82.7,103.6c0,10.7,2.5,13.3,13,13.3c11.6,0,22.8-6.2,22.8-21.8c0-15.1-10.7-21.6-28.8-21.6
			h-7.1V103.6z"/>
	</g>
</g>
</svg>
